:SAMPLES-PER-SECOND 30
:FULLY-SPECIFIED
:DEGREES
636
root  5.8025 32.1729 -65.5931 69.6756 4.64576 89.1889
Spine  -5.77809 -2.58142 -10.2331
Spine1  -5.41587 7.70893 1.69062
Neck  3.97569e-016 0 -2.38542e-015
Head  31.1937 -1.62733 18.7062
R_Clavicle  0.383237 -15.329 1.5317
R_UpperArm  11.1665 -10.384 28.4042
R_Forearm  7.80616 -6.99291 5.83019
R_Hand  -0.2904 4.91753 -11.4597
L_Clavicle  -0.425004 15.3952 -1.84313
L_UpperArm  -5.598 -1.35571 10.4956
L_Forearm  -2.42848 23.0156 29.3773
L_Hand  0.0610583 2.63988 0.962225
L_Thigh  0.356378 -3.2447 10.5012
L_Calf  2.89598 -2.10675 15.0391
L_Foot  1.10539 5.8605 -1.34328
L_Toe0  0.505169 0.0329818 -6.13623
R_Thigh  -11.2954 15.4525 -21.6358
R_Calf  -16.5928 3.68194 31.569
R_Foot  -6.11424 -13.9532 8.48431
R_Toe0  -1.8027 -0.26039 -17.3239
637
root  5.74214 32.0786 -64.7554 65.6993 4.99762 87.7443
Spine  -5.51257 1.34969 -11.8732
Spine1  -5.41419 4.10686 1.66147
Neck  3.97569e-016 0 -2.38542e-015
Head  32.0506 -4.39476 19.5459
R_Clavicle  0.379724 -15.8997 1.41475
R_UpperArm  9.14552 -9.38745 27.2771
R_Forearm  2.05906 -7.1238 5.94053
R_Hand  -0.191357 4.44982 -10.0629
L_Clavicle  -0.505684 17.1084 -2.02696
L_UpperArm  0.186086 0.163519 10.9099
L_Forearm  -0.554242 22.8607 29.1347
L_Hand  0.0672124 2.68943 1.04123
L_Thigh  -3.54547 -1.07218 7.61784
L_Calf  8.39651 -3.25837 24.4905
L_Foot  -0.0586123 1.53274 -2.21406
L_Toe0  0.505174 0.0324456 -6.13628
R_Thigh  -9.62205 15.33 -24.4299
R_Calf  -21.4615 2.13663 32.634
R_Foot  -6.75191 -14.7468 9.80697
R_Toe0  -1.8013 -0.261368 -17.3239
638
root  5.58416 31.9919 -63.9254 62.9136 5.57464 85.8955
Spine  -5.598 3.33046 -12.8925
Spine1  -5.51684 3.77862 2.26211
Neck  3.97569e-016 0 -2.38542e-015
Head  34.0756 -7.68493 19.2456
R_Clavicle  0.399079 -16.3264 1.71874
R_UpperArm  8.39888 -7.6939 27.1462
R_Forearm  -2.95652 -4.88547 4.05023
R_Hand  -0.0626432 4.64155 -8.97604
L_Clavicle  -0.580591 18.7647 -1.83333
L_UpperArm  3.59288 2.32377 11.1879
L_Forearm  3.62462 22.2514 28.1925
L_Hand  0.0721053 2.89024 1.04182
L_Thigh  -6.67023 -0.420126 6.86411
L_Calf  11.5848 -3.61624 25.19
L_Foot  2.91993 12.9722 -0.616917
L_Toe0  0.505179 0.0318549 -6.13633
R_Thigh  -10.3777 15.3151 -27.7905
R_Calf  -23.4372 2.61152 33.5458
R_Foot  -7.31192 -15.5623 10.7339
R_Toe0  -1.79967 -0.262516 -17.3238
639
root  5.3617 31.9585 -63.1586 62.4147 5.95914 85.1756
Spine  -6.29486 0.164891 -13.6059
Spine1  -6.06909 8.82951 2.2241
Neck  3.97569e-016 0 -2.38542e-015
Head  37.3617 -11.3545 18.8379
R_Clavicle  0.438088 -16.4127 2.44043
R_UpperArm  8.19292 -5.59716 27.741
R_Forearm  -4.18807 -1.36881 1.11253
R_Hand  0.037854 4.98412 -8.36042
L_Clavicle  -0.641387 20.5162 -1.32513
L_UpperArm  4.54261 5.55822 12.1049
L_Forearm  8.42564 21.7497 27.4288
L_Hand  0.0787471 3.34349 1.02294
L_Thigh  -3.33888 -1.35836 5.04027
L_Calf  8.92597 -4.91624 27.2797
L_Foot  2.1434 18.0935 -6.42924
L_Toe0  0.505184 0.0312212 -6.1364
R_Thigh  -12.9688 14.907 -30.5966
R_Calf  -21.7025 4.38887 34.5938
R_Foot  -7.55255 -15.8246 11.2351
R_Toe0  -1.7978 -0.263841 -17.3238
640
root  5.12511 31.8936 -62.4634 63.9091 5.57223 86.3301
Spine  -7.41338 -7.21414 -14.0756
Spine1  -7.20208 17.3864 0.512333
Neck  3.97569e-016 0 -2.38542e-015
Head  40.4834 -14.6214 19.4898
R_Clavicle  0.483374 -16.3444 3.27126
R_UpperArm  9.56173 -4.5019 29.0724
R_Forearm  -2.27031 2.72566 -2.29445
R_Hand  0.0917609 5.16042 -8.03368
L_Clavicle  -0.684526 22.0655 -0.932549
L_UpperArm  5.44527 8.99338 14.0015
L_Forearm  10.0228 21.8945 27.6477
L_Hand  0.0979178 3.84188 1.20406
L_Thigh  0.77003 -4.2349 4.84649
L_Calf  5.61723 -3.91813 27.5821
L_Foot  0.0919795 17.027 -11.78
L_Toe0  0.50519 0.0305558 -6.13646
R_Thigh  -16.3792 14.054 -31.5483
R_Calf  -17.9337 6.35114 34.96
R_Foot  -7.79829 -15.8468 12.0833
R_Toe0  -1.79569 -0.265351 -17.3237
641
root  4.88976 31.8321 -61.7804 65.5981 4.86228 87.9148
Spine  -8.30792 -13.3561 -13.8546
Spine1  -8.48964 24.0212 -2.20607
Neck  3.97569e-016 0 -2.38542e-015
Head  41.2273 -16.2786 21.1811
R_Clavicle  0.508432 -16.4343 3.75703
R_UpperArm  13.861 -5.49129 31.5436
R_Forearm  0.858572 7.84455 -6.60324
R_Hand  0.20408 5.33662 -7.17001
L_Clavicle  -0.699821 22.1831 -1.1074
L_UpperArm  7.6755 11.6825 15.8875
L_Forearm  7.83157 22.7603 28.9769
L_Hand  0.168255 4.32579 2.05187
L_Thigh  3.88632 -6.88453 5.65905
L_Calf  3.25023 -3.15313 24.9522
L_Foot  1.07059 15.817 -8.31106
L_Toe0  0.505196 0.0298703 -6.13652
R_Thigh  -19.4404 12.8324 -31.9827
R_Calf  -14.725 8.59109 35.4917
R_Foot  -8.18648 -16.2977 12.8161
R_Toe0  -1.79332 -0.267054 -17.3237
642
root  4.65628 31.8149 -61.057 65.389 4.60989 88.6975
Spine  -7.92059 -14.7999 -13.9306
Spine1  -8.43408 25.0416 -3.69518
Neck  3.97569e-016 0 -2.38542e-015
Head  39.3403 -15.7871 22.32
R_Clavicle  0.499208 -17.0037 3.7399
R_UpperArm  20.1 -7.66294 34.9084
R_Forearm  5.40585 14.4179 -12.3662
R_Hand  0.439123 5.42532 -5.11433
L_Clavicle  -0.655042 20.5552 -1.60604
L_UpperArm  9.38546 13.2852 17.035
L_Forearm  5.09024 23.7826 30.5913
L_Hand  0.296884 4.88888 3.4149
L_Thigh  3.30848 -7.44175 5.55695
L_Calf  3.5252 -3.04369 23.1048
L_Foot  1.92594 15.8816 -5.75907
L_Toe0  0.505202 0.0291762 -6.13659
R_Thigh  -21.3827 11.2921 -33.3927
R_Calf  -13.1846 10.5949 37.085
R_Foot  -8.49012 -16.8973 13.0238
R_Toe0  -1.79068 -0.269006 -17.3252
